<mxfile host="app.diagrams.net" modified="2023-06-04T06:59:17.626Z" agent="Mozilla/5.0 (Windows NT 10.0; Win64; x64) AppleWebKit/537.36 (KHTML, like Gecko) Chrome/113.0.0.0 Safari/537.36" etag="dz2p8xqUL82UaFGBiMef" version="21.3.4" type="device" pages="2">
  <diagram name="NAND" id="PIoKL32vcKAz8VTRDoJw">
    <mxGraphModel dx="1036" dy="567" grid="1" gridSize="10" guides="1" tooltips="1" connect="1" arrows="1" fold="1" page="1" pageScale="1" pageWidth="827" pageHeight="1169" math="0" shadow="0">
      <root>
        <mxCell id="0" />
        <mxCell id="1" parent="0" />
        <mxCell id="r09oYpW11PsjkvcpAPsw-1" value="" style="verticalLabelPosition=bottom;shadow=0;dashed=0;align=center;html=1;verticalAlign=top;shape=mxgraph.electrical.logic_gates.inverter_2;strokeWidth=2;" vertex="1" parent="1">
          <mxGeometry x="80" y="90" width="100" height="60" as="geometry" />
        </mxCell>
        <mxCell id="r09oYpW11PsjkvcpAPsw-6" value="" style="group;strokeWidth=2;" vertex="1" connectable="0" parent="1">
          <mxGeometry x="280" y="90" width="120" height="60" as="geometry" />
        </mxCell>
        <mxCell id="r09oYpW11PsjkvcpAPsw-2" value="" style="verticalLabelPosition=bottom;shadow=0;dashed=0;align=center;html=1;verticalAlign=top;shape=mxgraph.electrical.logic_gates.logic_gate;operation=and;negating=1;negSize=0.15;strokeWidth=2;" vertex="1" parent="r09oYpW11PsjkvcpAPsw-6">
          <mxGeometry x="20" width="100" height="60" as="geometry" />
        </mxCell>
        <mxCell id="r09oYpW11PsjkvcpAPsw-3" value="" style="endArrow=none;html=1;rounded=0;exitX=0;exitY=0.25;exitDx=0;exitDy=0;exitPerimeter=0;entryX=0;entryY=0.75;entryDx=0;entryDy=0;entryPerimeter=0;strokeWidth=2;" edge="1" parent="r09oYpW11PsjkvcpAPsw-6" source="r09oYpW11PsjkvcpAPsw-2" target="r09oYpW11PsjkvcpAPsw-2">
          <mxGeometry width="50" height="50" relative="1" as="geometry">
            <mxPoint x="90" y="-20" as="sourcePoint" />
            <mxPoint x="140" y="-70" as="targetPoint" />
          </mxGeometry>
        </mxCell>
        <mxCell id="r09oYpW11PsjkvcpAPsw-5" value="" style="endArrow=oval;html=1;rounded=0;endFill=1;strokeWidth=2;" edge="1" parent="r09oYpW11PsjkvcpAPsw-6">
          <mxGeometry width="50" height="50" relative="1" as="geometry">
            <mxPoint y="30" as="sourcePoint" />
            <mxPoint x="20" y="30" as="targetPoint" />
          </mxGeometry>
        </mxCell>
        <mxCell id="r09oYpW11PsjkvcpAPsw-7" value="&lt;font style=&quot;font-size: 24px;&quot;&gt;=&lt;/font&gt;" style="text;html=1;strokeColor=none;fillColor=none;align=center;verticalAlign=middle;whiteSpace=wrap;rounded=0;" vertex="1" parent="1">
          <mxGeometry x="220" y="105" width="20" height="30" as="geometry" />
        </mxCell>
        <mxCell id="r09oYpW11PsjkvcpAPsw-9" value="" style="verticalLabelPosition=bottom;shadow=0;dashed=0;align=center;html=1;verticalAlign=top;shape=mxgraph.electrical.logic_gates.logic_gate;operation=and;strokeWidth=2;" vertex="1" parent="1">
          <mxGeometry x="80" y="210" width="100" height="60" as="geometry" />
        </mxCell>
        <mxCell id="r09oYpW11PsjkvcpAPsw-10" value="&lt;font style=&quot;font-size: 24px;&quot;&gt;=&lt;/font&gt;" style="text;html=1;strokeColor=none;fillColor=none;align=center;verticalAlign=middle;whiteSpace=wrap;rounded=0;" vertex="1" parent="1">
          <mxGeometry x="220" y="225" width="20" height="30" as="geometry" />
        </mxCell>
        <mxCell id="r09oYpW11PsjkvcpAPsw-16" value="" style="verticalLabelPosition=bottom;shadow=0;dashed=0;align=center;html=1;verticalAlign=top;shape=mxgraph.electrical.logic_gates.logic_gate;operation=and;negating=1;negSize=0.15;strokeWidth=2;" vertex="1" parent="1">
          <mxGeometry x="500" y="90" width="100" height="60" as="geometry" />
        </mxCell>
        <mxCell id="r09oYpW11PsjkvcpAPsw-17" value="" style="verticalLabelPosition=bottom;shadow=0;dashed=0;align=center;html=1;verticalAlign=top;shape=mxgraph.electrical.logic_gates.logic_gate;operation=and;negating=1;negSize=0.15;strokeWidth=2;" vertex="1" parent="1">
          <mxGeometry x="700" y="90" width="100" height="60" as="geometry" />
        </mxCell>
        <mxCell id="r09oYpW11PsjkvcpAPsw-18" value="&lt;font style=&quot;font-size: 24px;&quot;&gt;=&lt;/font&gt;" style="text;html=1;strokeColor=none;fillColor=none;align=center;verticalAlign=middle;whiteSpace=wrap;rounded=0;" vertex="1" parent="1">
          <mxGeometry x="640" y="105" width="20" height="30" as="geometry" />
        </mxCell>
        <mxCell id="r09oYpW11PsjkvcpAPsw-19" value="" style="verticalLabelPosition=bottom;shadow=0;dashed=0;align=center;html=1;verticalAlign=top;shape=mxgraph.electrical.logic_gates.logic_gate;operation=or;strokeWidth=2;" vertex="1" parent="1">
          <mxGeometry x="80" y="370" width="100" height="60" as="geometry" />
        </mxCell>
        <mxCell id="r09oYpW11PsjkvcpAPsw-20" value="&lt;font style=&quot;font-size: 24px;&quot;&gt;=&lt;/font&gt;" style="text;html=1;strokeColor=none;fillColor=none;align=center;verticalAlign=middle;whiteSpace=wrap;rounded=0;" vertex="1" parent="1">
          <mxGeometry x="220" y="385" width="20" height="30" as="geometry" />
        </mxCell>
        <mxCell id="r09oYpW11PsjkvcpAPsw-32" value="" style="verticalLabelPosition=bottom;shadow=0;dashed=0;align=center;html=1;verticalAlign=top;shape=mxgraph.electrical.logic_gates.logic_gate;operation=or;negating=1;negSize=0.15;strokeWidth=2;" vertex="1" parent="1">
          <mxGeometry x="80" y="570" width="100" height="60" as="geometry" />
        </mxCell>
        <mxCell id="r09oYpW11PsjkvcpAPsw-33" value="&lt;font style=&quot;font-size: 24px;&quot;&gt;=&lt;/font&gt;" style="text;html=1;strokeColor=none;fillColor=none;align=center;verticalAlign=middle;whiteSpace=wrap;rounded=0;" vertex="1" parent="1">
          <mxGeometry x="220" y="585" width="20" height="30" as="geometry" />
        </mxCell>
        <mxCell id="r09oYpW11PsjkvcpAPsw-49" value="" style="verticalLabelPosition=bottom;shadow=0;dashed=0;align=center;html=1;verticalAlign=top;shape=mxgraph.electrical.logic_gates.logic_gate;operation=xor;strokeWidth=2;" vertex="1" parent="1">
          <mxGeometry x="80" y="770" width="100" height="60" as="geometry" />
        </mxCell>
        <mxCell id="r09oYpW11PsjkvcpAPsw-50" value="&lt;font style=&quot;font-size: 24px;&quot;&gt;=&lt;/font&gt;" style="text;html=1;strokeColor=none;fillColor=none;align=center;verticalAlign=middle;whiteSpace=wrap;rounded=0;" vertex="1" parent="1">
          <mxGeometry x="220" y="785" width="20" height="30" as="geometry" />
        </mxCell>
        <mxCell id="r09oYpW11PsjkvcpAPsw-67" value="" style="verticalLabelPosition=bottom;shadow=0;dashed=0;align=center;html=1;verticalAlign=top;shape=mxgraph.electrical.logic_gates.logic_gate;operation=xor;negating=1;negSize=0.15;strokeWidth=2;" vertex="1" parent="1">
          <mxGeometry x="80" y="970" width="100" height="60" as="geometry" />
        </mxCell>
        <mxCell id="r09oYpW11PsjkvcpAPsw-68" value="&lt;font style=&quot;font-size: 24px;&quot;&gt;=&lt;/font&gt;" style="text;html=1;strokeColor=none;fillColor=none;align=center;verticalAlign=middle;whiteSpace=wrap;rounded=0;" vertex="1" parent="1">
          <mxGeometry x="220" y="985" width="20" height="30" as="geometry" />
        </mxCell>
        <mxCell id="r09oYpW11PsjkvcpAPsw-85" value="" style="group" vertex="1" connectable="0" parent="1">
          <mxGeometry x="280" y="930" width="440" height="140" as="geometry" />
        </mxCell>
        <mxCell id="r09oYpW11PsjkvcpAPsw-69" value="" style="verticalLabelPosition=bottom;shadow=0;dashed=0;align=center;html=1;verticalAlign=top;shape=mxgraph.electrical.logic_gates.logic_gate;operation=and;negating=1;negSize=0.15;strokeWidth=2;" vertex="1" parent="r09oYpW11PsjkvcpAPsw-85">
          <mxGeometry x="230" y="40" width="100" height="60" as="geometry" />
        </mxCell>
        <mxCell id="r09oYpW11PsjkvcpAPsw-70" value="" style="endArrow=none;html=1;rounded=0;strokeWidth=2;exitX=1;exitY=0.5;exitDx=0;exitDy=0;exitPerimeter=0;entryX=0;entryY=0.75;entryDx=0;entryDy=0;entryPerimeter=0;" edge="1" parent="r09oYpW11PsjkvcpAPsw-85" source="r09oYpW11PsjkvcpAPsw-74" target="r09oYpW11PsjkvcpAPsw-69">
          <mxGeometry width="50" height="50" relative="1" as="geometry">
            <mxPoint x="220" y="-80" as="sourcePoint" />
            <mxPoint x="270" y="-130" as="targetPoint" />
          </mxGeometry>
        </mxCell>
        <mxCell id="r09oYpW11PsjkvcpAPsw-71" value="" style="endArrow=none;html=1;rounded=0;strokeWidth=2;exitX=0;exitY=0.25;exitDx=0;exitDy=0;exitPerimeter=0;entryX=1;entryY=0.5;entryDx=0;entryDy=0;entryPerimeter=0;" edge="1" parent="r09oYpW11PsjkvcpAPsw-85" source="r09oYpW11PsjkvcpAPsw-69" target="r09oYpW11PsjkvcpAPsw-72">
          <mxGeometry width="50" height="50" relative="1" as="geometry">
            <mxPoint x="230" y="40" as="sourcePoint" />
            <mxPoint x="280" y="-120" as="targetPoint" />
          </mxGeometry>
        </mxCell>
        <mxCell id="r09oYpW11PsjkvcpAPsw-72" value="" style="verticalLabelPosition=bottom;shadow=0;dashed=0;align=center;html=1;verticalAlign=top;shape=mxgraph.electrical.logic_gates.logic_gate;operation=and;negating=1;negSize=0.15;strokeWidth=2;" vertex="1" parent="r09oYpW11PsjkvcpAPsw-85">
          <mxGeometry x="130" width="100" height="60" as="geometry" />
        </mxCell>
        <mxCell id="r09oYpW11PsjkvcpAPsw-73" value="" style="endArrow=none;html=1;rounded=0;exitX=0;exitY=0.75;exitDx=0;exitDy=0;exitPerimeter=0;entryX=0;entryY=0.25;entryDx=0;entryDy=0;entryPerimeter=0;strokeWidth=2;" edge="1" parent="r09oYpW11PsjkvcpAPsw-85" source="r09oYpW11PsjkvcpAPsw-72" target="r09oYpW11PsjkvcpAPsw-74">
          <mxGeometry width="50" height="50" relative="1" as="geometry">
            <mxPoint x="130" y="55" as="sourcePoint" />
            <mxPoint x="130" y="85" as="targetPoint" />
          </mxGeometry>
        </mxCell>
        <mxCell id="r09oYpW11PsjkvcpAPsw-74" value="" style="verticalLabelPosition=bottom;shadow=0;dashed=0;align=center;html=1;verticalAlign=top;shape=mxgraph.electrical.logic_gates.logic_gate;operation=and;negating=1;negSize=0.15;strokeWidth=2;" vertex="1" parent="r09oYpW11PsjkvcpAPsw-85">
          <mxGeometry x="130" y="80" width="100" height="60" as="geometry" />
        </mxCell>
        <mxCell id="r09oYpW11PsjkvcpAPsw-75" value="" style="endArrow=oval;html=1;rounded=0;endFill=1;strokeWidth=2;" edge="1" parent="r09oYpW11PsjkvcpAPsw-85">
          <mxGeometry width="50" height="50" relative="1" as="geometry">
            <mxPoint x="110" y="70" as="sourcePoint" />
            <mxPoint x="130" y="70" as="targetPoint" />
          </mxGeometry>
        </mxCell>
        <mxCell id="r09oYpW11PsjkvcpAPsw-76" value="" style="verticalLabelPosition=bottom;shadow=0;dashed=0;align=center;html=1;verticalAlign=top;shape=mxgraph.electrical.logic_gates.logic_gate;operation=and;negating=1;negSize=0.15;strokeWidth=2;" vertex="1" parent="r09oYpW11PsjkvcpAPsw-85">
          <mxGeometry x="20" y="40" width="100" height="60" as="geometry" />
        </mxCell>
        <mxCell id="r09oYpW11PsjkvcpAPsw-77" value="" style="endArrow=none;html=1;rounded=0;strokeWidth=2;entryX=0;entryY=0.25;entryDx=0;entryDy=0;entryPerimeter=0;startArrow=oval;startFill=1;" edge="1" parent="r09oYpW11PsjkvcpAPsw-85" target="r09oYpW11PsjkvcpAPsw-76">
          <mxGeometry width="50" height="50" relative="1" as="geometry">
            <mxPoint x="20" y="15" as="sourcePoint" />
            <mxPoint x="20" y="50" as="targetPoint" />
          </mxGeometry>
        </mxCell>
        <mxCell id="r09oYpW11PsjkvcpAPsw-78" value="" style="endArrow=none;html=1;rounded=0;strokeWidth=2;entryX=0;entryY=0.75;entryDx=0;entryDy=0;entryPerimeter=0;" edge="1" parent="r09oYpW11PsjkvcpAPsw-85" target="r09oYpW11PsjkvcpAPsw-74">
          <mxGeometry width="50" height="50" relative="1" as="geometry">
            <mxPoint y="125" as="sourcePoint" />
            <mxPoint x="60" as="targetPoint" />
          </mxGeometry>
        </mxCell>
        <mxCell id="r09oYpW11PsjkvcpAPsw-79" value="" style="endArrow=none;html=1;rounded=0;strokeWidth=2;entryX=0;entryY=0.25;entryDx=0;entryDy=0;entryPerimeter=0;" edge="1" parent="r09oYpW11PsjkvcpAPsw-85" target="r09oYpW11PsjkvcpAPsw-72">
          <mxGeometry width="50" height="50" relative="1" as="geometry">
            <mxPoint y="15" as="sourcePoint" />
            <mxPoint x="60" as="targetPoint" />
          </mxGeometry>
        </mxCell>
        <mxCell id="r09oYpW11PsjkvcpAPsw-80" value="" style="endArrow=none;html=1;rounded=0;strokeWidth=2;entryX=0;entryY=0.75;entryDx=0;entryDy=0;entryPerimeter=0;endFill=0;startArrow=oval;startFill=1;" edge="1" parent="r09oYpW11PsjkvcpAPsw-85" target="r09oYpW11PsjkvcpAPsw-76">
          <mxGeometry width="50" height="50" relative="1" as="geometry">
            <mxPoint x="20" y="125" as="sourcePoint" />
            <mxPoint x="20" y="90" as="targetPoint" />
          </mxGeometry>
        </mxCell>
        <mxCell id="r09oYpW11PsjkvcpAPsw-81" value="" style="group;strokeWidth=2;" vertex="1" connectable="0" parent="r09oYpW11PsjkvcpAPsw-85">
          <mxGeometry x="320" y="40" width="120" height="60" as="geometry" />
        </mxCell>
        <mxCell id="r09oYpW11PsjkvcpAPsw-82" value="" style="verticalLabelPosition=bottom;shadow=0;dashed=0;align=center;html=1;verticalAlign=top;shape=mxgraph.electrical.logic_gates.logic_gate;operation=and;negating=1;negSize=0.15;strokeWidth=2;" vertex="1" parent="r09oYpW11PsjkvcpAPsw-81">
          <mxGeometry x="20" width="100" height="60" as="geometry" />
        </mxCell>
        <mxCell id="r09oYpW11PsjkvcpAPsw-83" value="" style="endArrow=none;html=1;rounded=0;exitX=0;exitY=0.25;exitDx=0;exitDy=0;exitPerimeter=0;entryX=0;entryY=0.75;entryDx=0;entryDy=0;entryPerimeter=0;strokeWidth=2;" edge="1" parent="r09oYpW11PsjkvcpAPsw-81" source="r09oYpW11PsjkvcpAPsw-82" target="r09oYpW11PsjkvcpAPsw-82">
          <mxGeometry width="50" height="50" relative="1" as="geometry">
            <mxPoint x="90" y="-20" as="sourcePoint" />
            <mxPoint x="140" y="-70" as="targetPoint" />
          </mxGeometry>
        </mxCell>
        <mxCell id="r09oYpW11PsjkvcpAPsw-84" value="" style="endArrow=oval;html=1;rounded=0;endFill=1;strokeWidth=2;" edge="1" parent="r09oYpW11PsjkvcpAPsw-81">
          <mxGeometry width="50" height="50" relative="1" as="geometry">
            <mxPoint y="30" as="sourcePoint" />
            <mxPoint x="20" y="30" as="targetPoint" />
          </mxGeometry>
        </mxCell>
        <mxCell id="r09oYpW11PsjkvcpAPsw-86" value="" style="group" vertex="1" connectable="0" parent="1">
          <mxGeometry x="280" y="730" width="330" height="140" as="geometry" />
        </mxCell>
        <mxCell id="r09oYpW11PsjkvcpAPsw-55" value="" style="verticalLabelPosition=bottom;shadow=0;dashed=0;align=center;html=1;verticalAlign=top;shape=mxgraph.electrical.logic_gates.logic_gate;operation=and;negating=1;negSize=0.15;strokeWidth=2;" vertex="1" parent="r09oYpW11PsjkvcpAPsw-86">
          <mxGeometry x="230" y="40" width="100" height="60" as="geometry" />
        </mxCell>
        <mxCell id="r09oYpW11PsjkvcpAPsw-60" value="" style="endArrow=none;html=1;rounded=0;strokeWidth=2;exitX=1;exitY=0.5;exitDx=0;exitDy=0;exitPerimeter=0;entryX=0;entryY=0.75;entryDx=0;entryDy=0;entryPerimeter=0;" edge="1" parent="r09oYpW11PsjkvcpAPsw-86" source="r09oYpW11PsjkvcpAPsw-57" target="r09oYpW11PsjkvcpAPsw-55">
          <mxGeometry width="50" height="50" relative="1" as="geometry">
            <mxPoint x="220" y="-80" as="sourcePoint" />
            <mxPoint x="270" y="-130" as="targetPoint" />
          </mxGeometry>
        </mxCell>
        <mxCell id="r09oYpW11PsjkvcpAPsw-61" value="" style="endArrow=none;html=1;rounded=0;strokeWidth=2;exitX=0;exitY=0.25;exitDx=0;exitDy=0;exitPerimeter=0;entryX=1;entryY=0.5;entryDx=0;entryDy=0;entryPerimeter=0;" edge="1" parent="r09oYpW11PsjkvcpAPsw-86" source="r09oYpW11PsjkvcpAPsw-55" target="r09oYpW11PsjkvcpAPsw-52">
          <mxGeometry width="50" height="50" relative="1" as="geometry">
            <mxPoint x="230" y="40" as="sourcePoint" />
            <mxPoint x="280" y="-120" as="targetPoint" />
          </mxGeometry>
        </mxCell>
        <mxCell id="r09oYpW11PsjkvcpAPsw-52" value="" style="verticalLabelPosition=bottom;shadow=0;dashed=0;align=center;html=1;verticalAlign=top;shape=mxgraph.electrical.logic_gates.logic_gate;operation=and;negating=1;negSize=0.15;strokeWidth=2;" vertex="1" parent="r09oYpW11PsjkvcpAPsw-86">
          <mxGeometry x="130" width="100" height="60" as="geometry" />
        </mxCell>
        <mxCell id="r09oYpW11PsjkvcpAPsw-53" value="" style="endArrow=none;html=1;rounded=0;exitX=0;exitY=0.75;exitDx=0;exitDy=0;exitPerimeter=0;entryX=0;entryY=0.25;entryDx=0;entryDy=0;entryPerimeter=0;strokeWidth=2;" edge="1" parent="r09oYpW11PsjkvcpAPsw-86" source="r09oYpW11PsjkvcpAPsw-52" target="r09oYpW11PsjkvcpAPsw-57">
          <mxGeometry width="50" height="50" relative="1" as="geometry">
            <mxPoint x="130" y="55" as="sourcePoint" />
            <mxPoint x="130" y="85" as="targetPoint" />
          </mxGeometry>
        </mxCell>
        <mxCell id="r09oYpW11PsjkvcpAPsw-57" value="" style="verticalLabelPosition=bottom;shadow=0;dashed=0;align=center;html=1;verticalAlign=top;shape=mxgraph.electrical.logic_gates.logic_gate;operation=and;negating=1;negSize=0.15;strokeWidth=2;" vertex="1" parent="r09oYpW11PsjkvcpAPsw-86">
          <mxGeometry x="130" y="80" width="100" height="60" as="geometry" />
        </mxCell>
        <mxCell id="r09oYpW11PsjkvcpAPsw-59" value="" style="endArrow=oval;html=1;rounded=0;endFill=1;strokeWidth=2;" edge="1" parent="r09oYpW11PsjkvcpAPsw-86">
          <mxGeometry width="50" height="50" relative="1" as="geometry">
            <mxPoint x="110" y="70" as="sourcePoint" />
            <mxPoint x="130" y="70" as="targetPoint" />
          </mxGeometry>
        </mxCell>
        <mxCell id="r09oYpW11PsjkvcpAPsw-62" value="" style="verticalLabelPosition=bottom;shadow=0;dashed=0;align=center;html=1;verticalAlign=top;shape=mxgraph.electrical.logic_gates.logic_gate;operation=and;negating=1;negSize=0.15;strokeWidth=2;" vertex="1" parent="r09oYpW11PsjkvcpAPsw-86">
          <mxGeometry x="20" y="40" width="100" height="60" as="geometry" />
        </mxCell>
        <mxCell id="r09oYpW11PsjkvcpAPsw-63" value="" style="endArrow=none;html=1;rounded=0;strokeWidth=2;entryX=0;entryY=0.25;entryDx=0;entryDy=0;entryPerimeter=0;startArrow=oval;startFill=1;" edge="1" parent="r09oYpW11PsjkvcpAPsw-86" target="r09oYpW11PsjkvcpAPsw-62">
          <mxGeometry width="50" height="50" relative="1" as="geometry">
            <mxPoint x="20" y="15" as="sourcePoint" />
            <mxPoint x="20" y="50" as="targetPoint" />
          </mxGeometry>
        </mxCell>
        <mxCell id="r09oYpW11PsjkvcpAPsw-64" value="" style="endArrow=none;html=1;rounded=0;strokeWidth=2;entryX=0;entryY=0.75;entryDx=0;entryDy=0;entryPerimeter=0;" edge="1" parent="r09oYpW11PsjkvcpAPsw-86" target="r09oYpW11PsjkvcpAPsw-57">
          <mxGeometry width="50" height="50" relative="1" as="geometry">
            <mxPoint y="125" as="sourcePoint" />
            <mxPoint x="60" as="targetPoint" />
          </mxGeometry>
        </mxCell>
        <mxCell id="r09oYpW11PsjkvcpAPsw-65" value="" style="endArrow=none;html=1;rounded=0;strokeWidth=2;entryX=0;entryY=0.25;entryDx=0;entryDy=0;entryPerimeter=0;" edge="1" parent="r09oYpW11PsjkvcpAPsw-86" target="r09oYpW11PsjkvcpAPsw-52">
          <mxGeometry width="50" height="50" relative="1" as="geometry">
            <mxPoint y="15" as="sourcePoint" />
            <mxPoint x="60" as="targetPoint" />
          </mxGeometry>
        </mxCell>
        <mxCell id="r09oYpW11PsjkvcpAPsw-66" value="" style="endArrow=none;html=1;rounded=0;strokeWidth=2;entryX=0;entryY=0.75;entryDx=0;entryDy=0;entryPerimeter=0;endFill=0;startArrow=oval;startFill=1;" edge="1" parent="r09oYpW11PsjkvcpAPsw-86" target="r09oYpW11PsjkvcpAPsw-62">
          <mxGeometry width="50" height="50" relative="1" as="geometry">
            <mxPoint x="20" y="125" as="sourcePoint" />
            <mxPoint x="20" y="90" as="targetPoint" />
          </mxGeometry>
        </mxCell>
        <mxCell id="r09oYpW11PsjkvcpAPsw-87" value="" style="group" vertex="1" connectable="0" parent="1">
          <mxGeometry x="280" y="530" width="330" height="140" as="geometry" />
        </mxCell>
        <mxCell id="r09oYpW11PsjkvcpAPsw-34" value="" style="group;strokeWidth=2;" vertex="1" connectable="0" parent="r09oYpW11PsjkvcpAPsw-87">
          <mxGeometry width="120" height="60" as="geometry" />
        </mxCell>
        <mxCell id="r09oYpW11PsjkvcpAPsw-35" value="" style="verticalLabelPosition=bottom;shadow=0;dashed=0;align=center;html=1;verticalAlign=top;shape=mxgraph.electrical.logic_gates.logic_gate;operation=and;negating=1;negSize=0.15;strokeWidth=2;" vertex="1" parent="r09oYpW11PsjkvcpAPsw-34">
          <mxGeometry x="20" width="100" height="60" as="geometry" />
        </mxCell>
        <mxCell id="r09oYpW11PsjkvcpAPsw-36" value="" style="endArrow=none;html=1;rounded=0;exitX=0;exitY=0.25;exitDx=0;exitDy=0;exitPerimeter=0;entryX=0;entryY=0.75;entryDx=0;entryDy=0;entryPerimeter=0;strokeWidth=2;" edge="1" parent="r09oYpW11PsjkvcpAPsw-34" source="r09oYpW11PsjkvcpAPsw-35" target="r09oYpW11PsjkvcpAPsw-35">
          <mxGeometry width="50" height="50" relative="1" as="geometry">
            <mxPoint x="90" y="-20" as="sourcePoint" />
            <mxPoint x="140" y="-70" as="targetPoint" />
          </mxGeometry>
        </mxCell>
        <mxCell id="r09oYpW11PsjkvcpAPsw-37" value="" style="endArrow=oval;html=1;rounded=0;endFill=1;strokeWidth=2;" edge="1" parent="r09oYpW11PsjkvcpAPsw-34">
          <mxGeometry width="50" height="50" relative="1" as="geometry">
            <mxPoint y="30" as="sourcePoint" />
            <mxPoint x="20" y="30" as="targetPoint" />
          </mxGeometry>
        </mxCell>
        <mxCell id="r09oYpW11PsjkvcpAPsw-38" value="" style="verticalLabelPosition=bottom;shadow=0;dashed=0;align=center;html=1;verticalAlign=top;shape=mxgraph.electrical.logic_gates.logic_gate;operation=and;negating=1;negSize=0.15;strokeWidth=2;" vertex="1" parent="r09oYpW11PsjkvcpAPsw-87">
          <mxGeometry x="120" y="40" width="100" height="60" as="geometry" />
        </mxCell>
        <mxCell id="r09oYpW11PsjkvcpAPsw-39" value="" style="group;strokeWidth=2;" vertex="1" connectable="0" parent="r09oYpW11PsjkvcpAPsw-87">
          <mxGeometry y="80" width="120" height="60" as="geometry" />
        </mxCell>
        <mxCell id="r09oYpW11PsjkvcpAPsw-40" value="" style="verticalLabelPosition=bottom;shadow=0;dashed=0;align=center;html=1;verticalAlign=top;shape=mxgraph.electrical.logic_gates.logic_gate;operation=and;negating=1;negSize=0.15;strokeWidth=2;" vertex="1" parent="r09oYpW11PsjkvcpAPsw-39">
          <mxGeometry x="20" width="100" height="60" as="geometry" />
        </mxCell>
        <mxCell id="r09oYpW11PsjkvcpAPsw-41" value="" style="endArrow=none;html=1;rounded=0;exitX=0;exitY=0.25;exitDx=0;exitDy=0;exitPerimeter=0;entryX=0;entryY=0.75;entryDx=0;entryDy=0;entryPerimeter=0;strokeWidth=2;" edge="1" parent="r09oYpW11PsjkvcpAPsw-39" source="r09oYpW11PsjkvcpAPsw-40" target="r09oYpW11PsjkvcpAPsw-40">
          <mxGeometry width="50" height="50" relative="1" as="geometry">
            <mxPoint x="90" y="-20" as="sourcePoint" />
            <mxPoint x="140" y="-70" as="targetPoint" />
          </mxGeometry>
        </mxCell>
        <mxCell id="r09oYpW11PsjkvcpAPsw-42" value="" style="endArrow=oval;html=1;rounded=0;endFill=1;strokeWidth=2;" edge="1" parent="r09oYpW11PsjkvcpAPsw-39">
          <mxGeometry width="50" height="50" relative="1" as="geometry">
            <mxPoint y="30" as="sourcePoint" />
            <mxPoint x="20" y="30" as="targetPoint" />
          </mxGeometry>
        </mxCell>
        <mxCell id="r09oYpW11PsjkvcpAPsw-43" value="" style="endArrow=none;html=1;rounded=0;strokeWidth=2;exitX=1;exitY=0.5;exitDx=0;exitDy=0;exitPerimeter=0;entryX=0;entryY=0.75;entryDx=0;entryDy=0;entryPerimeter=0;" edge="1" parent="r09oYpW11PsjkvcpAPsw-87" source="r09oYpW11PsjkvcpAPsw-40" target="r09oYpW11PsjkvcpAPsw-38">
          <mxGeometry width="50" height="50" relative="1" as="geometry">
            <mxPoint x="110" y="-80" as="sourcePoint" />
            <mxPoint x="160" y="-130" as="targetPoint" />
          </mxGeometry>
        </mxCell>
        <mxCell id="r09oYpW11PsjkvcpAPsw-44" value="" style="endArrow=none;html=1;rounded=0;strokeWidth=2;exitX=0;exitY=0.25;exitDx=0;exitDy=0;exitPerimeter=0;entryX=1;entryY=0.5;entryDx=0;entryDy=0;entryPerimeter=0;" edge="1" parent="r09oYpW11PsjkvcpAPsw-87" source="r09oYpW11PsjkvcpAPsw-38" target="r09oYpW11PsjkvcpAPsw-35">
          <mxGeometry width="50" height="50" relative="1" as="geometry">
            <mxPoint x="120" y="40" as="sourcePoint" />
            <mxPoint x="170" y="-120" as="targetPoint" />
          </mxGeometry>
        </mxCell>
        <mxCell id="r09oYpW11PsjkvcpAPsw-45" value="" style="group;strokeWidth=2;" vertex="1" connectable="0" parent="r09oYpW11PsjkvcpAPsw-87">
          <mxGeometry x="210" y="40" width="120" height="60" as="geometry" />
        </mxCell>
        <mxCell id="r09oYpW11PsjkvcpAPsw-46" value="" style="verticalLabelPosition=bottom;shadow=0;dashed=0;align=center;html=1;verticalAlign=top;shape=mxgraph.electrical.logic_gates.logic_gate;operation=and;negating=1;negSize=0.15;strokeWidth=2;" vertex="1" parent="r09oYpW11PsjkvcpAPsw-45">
          <mxGeometry x="20" width="100" height="60" as="geometry" />
        </mxCell>
        <mxCell id="r09oYpW11PsjkvcpAPsw-47" value="" style="endArrow=none;html=1;rounded=0;exitX=0;exitY=0.25;exitDx=0;exitDy=0;exitPerimeter=0;entryX=0;entryY=0.75;entryDx=0;entryDy=0;entryPerimeter=0;strokeWidth=2;" edge="1" parent="r09oYpW11PsjkvcpAPsw-45" source="r09oYpW11PsjkvcpAPsw-46" target="r09oYpW11PsjkvcpAPsw-46">
          <mxGeometry width="50" height="50" relative="1" as="geometry">
            <mxPoint x="90" y="-20" as="sourcePoint" />
            <mxPoint x="140" y="-70" as="targetPoint" />
          </mxGeometry>
        </mxCell>
        <mxCell id="r09oYpW11PsjkvcpAPsw-48" value="" style="endArrow=oval;html=1;rounded=0;endFill=1;strokeWidth=2;" edge="1" parent="r09oYpW11PsjkvcpAPsw-45">
          <mxGeometry width="50" height="50" relative="1" as="geometry">
            <mxPoint y="30" as="sourcePoint" />
            <mxPoint x="20" y="30" as="targetPoint" />
          </mxGeometry>
        </mxCell>
        <mxCell id="r09oYpW11PsjkvcpAPsw-88" value="" style="group" vertex="1" connectable="0" parent="1">
          <mxGeometry x="280" y="330" width="220" height="140" as="geometry" />
        </mxCell>
        <mxCell id="r09oYpW11PsjkvcpAPsw-21" value="" style="group;strokeWidth=2;" vertex="1" connectable="0" parent="r09oYpW11PsjkvcpAPsw-88">
          <mxGeometry width="120" height="60" as="geometry" />
        </mxCell>
        <mxCell id="r09oYpW11PsjkvcpAPsw-22" value="" style="verticalLabelPosition=bottom;shadow=0;dashed=0;align=center;html=1;verticalAlign=top;shape=mxgraph.electrical.logic_gates.logic_gate;operation=and;negating=1;negSize=0.15;strokeWidth=2;" vertex="1" parent="r09oYpW11PsjkvcpAPsw-21">
          <mxGeometry x="20" width="100" height="60" as="geometry" />
        </mxCell>
        <mxCell id="r09oYpW11PsjkvcpAPsw-23" value="" style="endArrow=none;html=1;rounded=0;exitX=0;exitY=0.25;exitDx=0;exitDy=0;exitPerimeter=0;entryX=0;entryY=0.75;entryDx=0;entryDy=0;entryPerimeter=0;strokeWidth=2;" edge="1" parent="r09oYpW11PsjkvcpAPsw-21" source="r09oYpW11PsjkvcpAPsw-22" target="r09oYpW11PsjkvcpAPsw-22">
          <mxGeometry width="50" height="50" relative="1" as="geometry">
            <mxPoint x="90" y="-20" as="sourcePoint" />
            <mxPoint x="140" y="-70" as="targetPoint" />
          </mxGeometry>
        </mxCell>
        <mxCell id="r09oYpW11PsjkvcpAPsw-24" value="" style="endArrow=oval;html=1;rounded=0;endFill=1;strokeWidth=2;" edge="1" parent="r09oYpW11PsjkvcpAPsw-21">
          <mxGeometry width="50" height="50" relative="1" as="geometry">
            <mxPoint y="30" as="sourcePoint" />
            <mxPoint x="20" y="30" as="targetPoint" />
          </mxGeometry>
        </mxCell>
        <mxCell id="r09oYpW11PsjkvcpAPsw-25" value="" style="verticalLabelPosition=bottom;shadow=0;dashed=0;align=center;html=1;verticalAlign=top;shape=mxgraph.electrical.logic_gates.logic_gate;operation=and;negating=1;negSize=0.15;strokeWidth=2;" vertex="1" parent="r09oYpW11PsjkvcpAPsw-88">
          <mxGeometry x="120" y="40" width="100" height="60" as="geometry" />
        </mxCell>
        <mxCell id="r09oYpW11PsjkvcpAPsw-26" value="" style="group;strokeWidth=2;" vertex="1" connectable="0" parent="r09oYpW11PsjkvcpAPsw-88">
          <mxGeometry y="80" width="120" height="60" as="geometry" />
        </mxCell>
        <mxCell id="r09oYpW11PsjkvcpAPsw-27" value="" style="verticalLabelPosition=bottom;shadow=0;dashed=0;align=center;html=1;verticalAlign=top;shape=mxgraph.electrical.logic_gates.logic_gate;operation=and;negating=1;negSize=0.15;strokeWidth=2;" vertex="1" parent="r09oYpW11PsjkvcpAPsw-26">
          <mxGeometry x="20" width="100" height="60" as="geometry" />
        </mxCell>
        <mxCell id="r09oYpW11PsjkvcpAPsw-28" value="" style="endArrow=none;html=1;rounded=0;exitX=0;exitY=0.25;exitDx=0;exitDy=0;exitPerimeter=0;entryX=0;entryY=0.75;entryDx=0;entryDy=0;entryPerimeter=0;strokeWidth=2;" edge="1" parent="r09oYpW11PsjkvcpAPsw-26" source="r09oYpW11PsjkvcpAPsw-27" target="r09oYpW11PsjkvcpAPsw-27">
          <mxGeometry width="50" height="50" relative="1" as="geometry">
            <mxPoint x="90" y="-20" as="sourcePoint" />
            <mxPoint x="140" y="-70" as="targetPoint" />
          </mxGeometry>
        </mxCell>
        <mxCell id="r09oYpW11PsjkvcpAPsw-29" value="" style="endArrow=oval;html=1;rounded=0;endFill=1;strokeWidth=2;" edge="1" parent="r09oYpW11PsjkvcpAPsw-26">
          <mxGeometry width="50" height="50" relative="1" as="geometry">
            <mxPoint y="30" as="sourcePoint" />
            <mxPoint x="20" y="30" as="targetPoint" />
          </mxGeometry>
        </mxCell>
        <mxCell id="r09oYpW11PsjkvcpAPsw-30" value="" style="endArrow=none;html=1;rounded=0;strokeWidth=2;exitX=1;exitY=0.5;exitDx=0;exitDy=0;exitPerimeter=0;entryX=0;entryY=0.75;entryDx=0;entryDy=0;entryPerimeter=0;" edge="1" parent="r09oYpW11PsjkvcpAPsw-88" source="r09oYpW11PsjkvcpAPsw-27" target="r09oYpW11PsjkvcpAPsw-25">
          <mxGeometry width="50" height="50" relative="1" as="geometry">
            <mxPoint x="110" y="-80" as="sourcePoint" />
            <mxPoint x="160" y="-130" as="targetPoint" />
          </mxGeometry>
        </mxCell>
        <mxCell id="r09oYpW11PsjkvcpAPsw-31" value="" style="endArrow=none;html=1;rounded=0;strokeWidth=2;exitX=0;exitY=0.25;exitDx=0;exitDy=0;exitPerimeter=0;entryX=1;entryY=0.5;entryDx=0;entryDy=0;entryPerimeter=0;" edge="1" parent="r09oYpW11PsjkvcpAPsw-88" source="r09oYpW11PsjkvcpAPsw-25" target="r09oYpW11PsjkvcpAPsw-22">
          <mxGeometry width="50" height="50" relative="1" as="geometry">
            <mxPoint x="120" y="40" as="sourcePoint" />
            <mxPoint x="170" y="-120" as="targetPoint" />
          </mxGeometry>
        </mxCell>
        <mxCell id="r09oYpW11PsjkvcpAPsw-89" value="" style="group" vertex="1" connectable="0" parent="1">
          <mxGeometry x="280" y="210" width="210" height="60" as="geometry" />
        </mxCell>
        <mxCell id="r09oYpW11PsjkvcpAPsw-12" value="" style="group;strokeWidth=2;" vertex="1" connectable="0" parent="r09oYpW11PsjkvcpAPsw-89">
          <mxGeometry x="90" width="120" height="60" as="geometry" />
        </mxCell>
        <mxCell id="r09oYpW11PsjkvcpAPsw-13" value="" style="verticalLabelPosition=bottom;shadow=0;dashed=0;align=center;html=1;verticalAlign=top;shape=mxgraph.electrical.logic_gates.logic_gate;operation=and;negating=1;negSize=0.15;strokeWidth=2;" vertex="1" parent="r09oYpW11PsjkvcpAPsw-12">
          <mxGeometry x="20" width="100" height="60" as="geometry" />
        </mxCell>
        <mxCell id="r09oYpW11PsjkvcpAPsw-14" value="" style="endArrow=none;html=1;rounded=0;exitX=0;exitY=0.25;exitDx=0;exitDy=0;exitPerimeter=0;entryX=0;entryY=0.75;entryDx=0;entryDy=0;entryPerimeter=0;strokeWidth=2;" edge="1" parent="r09oYpW11PsjkvcpAPsw-12" source="r09oYpW11PsjkvcpAPsw-13" target="r09oYpW11PsjkvcpAPsw-13">
          <mxGeometry width="50" height="50" relative="1" as="geometry">
            <mxPoint x="90" y="-20" as="sourcePoint" />
            <mxPoint x="140" y="-70" as="targetPoint" />
          </mxGeometry>
        </mxCell>
        <mxCell id="r09oYpW11PsjkvcpAPsw-15" value="" style="endArrow=oval;html=1;rounded=0;endFill=1;strokeWidth=2;" edge="1" parent="r09oYpW11PsjkvcpAPsw-12">
          <mxGeometry width="50" height="50" relative="1" as="geometry">
            <mxPoint y="30" as="sourcePoint" />
            <mxPoint x="20" y="30" as="targetPoint" />
          </mxGeometry>
        </mxCell>
        <mxCell id="r09oYpW11PsjkvcpAPsw-11" value="" style="verticalLabelPosition=bottom;shadow=0;dashed=0;align=center;html=1;verticalAlign=top;shape=mxgraph.electrical.logic_gates.logic_gate;operation=and;negating=1;negSize=0.15;strokeWidth=2;" vertex="1" parent="r09oYpW11PsjkvcpAPsw-89">
          <mxGeometry width="100" height="60" as="geometry" />
        </mxCell>
      </root>
    </mxGraphModel>
  </diagram>
  <diagram name="NOR" id="luDqPDSW-J05vyuXFSnX">
    <mxGraphModel dx="1036" dy="567" grid="1" gridSize="10" guides="1" tooltips="1" connect="1" arrows="1" fold="1" page="1" pageScale="1" pageWidth="827" pageHeight="1169" math="0" shadow="0">
      <root>
        <mxCell id="P-VTEG7PiZHD9YXEiT9n-0" />
        <mxCell id="P-VTEG7PiZHD9YXEiT9n-1" parent="P-VTEG7PiZHD9YXEiT9n-0" />
        <mxCell id="P-VTEG7PiZHD9YXEiT9n-2" value="" style="verticalLabelPosition=bottom;shadow=0;dashed=0;align=center;html=1;verticalAlign=top;shape=mxgraph.electrical.logic_gates.inverter_2;strokeWidth=2;" vertex="1" parent="P-VTEG7PiZHD9YXEiT9n-1">
          <mxGeometry x="80" y="90" width="100" height="60" as="geometry" />
        </mxCell>
        <mxCell id="P-VTEG7PiZHD9YXEiT9n-7" value="&lt;font style=&quot;font-size: 24px;&quot;&gt;=&lt;/font&gt;" style="text;html=1;strokeColor=none;fillColor=none;align=center;verticalAlign=middle;whiteSpace=wrap;rounded=0;" vertex="1" parent="P-VTEG7PiZHD9YXEiT9n-1">
          <mxGeometry x="220" y="105" width="20" height="30" as="geometry" />
        </mxCell>
        <mxCell id="P-VTEG7PiZHD9YXEiT9n-8" value="" style="verticalLabelPosition=bottom;shadow=0;dashed=0;align=center;html=1;verticalAlign=top;shape=mxgraph.electrical.logic_gates.logic_gate;operation=and;strokeWidth=2;" vertex="1" parent="P-VTEG7PiZHD9YXEiT9n-1">
          <mxGeometry x="80" y="370" width="100" height="60" as="geometry" />
        </mxCell>
        <mxCell id="P-VTEG7PiZHD9YXEiT9n-9" value="&lt;font style=&quot;font-size: 24px;&quot;&gt;=&lt;/font&gt;" style="text;html=1;strokeColor=none;fillColor=none;align=center;verticalAlign=middle;whiteSpace=wrap;rounded=0;" vertex="1" parent="P-VTEG7PiZHD9YXEiT9n-1">
          <mxGeometry x="220" y="225" width="20" height="30" as="geometry" />
        </mxCell>
        <mxCell id="P-VTEG7PiZHD9YXEiT9n-10" value="" style="verticalLabelPosition=bottom;shadow=0;dashed=0;align=center;html=1;verticalAlign=top;shape=mxgraph.electrical.logic_gates.logic_gate;operation=and;negating=1;negSize=0.15;strokeWidth=2;" vertex="1" parent="P-VTEG7PiZHD9YXEiT9n-1">
          <mxGeometry x="80" y="570" width="100" height="60" as="geometry" />
        </mxCell>
        <mxCell id="P-VTEG7PiZHD9YXEiT9n-12" value="&lt;font style=&quot;font-size: 24px;&quot;&gt;=&lt;/font&gt;" style="text;html=1;strokeColor=none;fillColor=none;align=center;verticalAlign=middle;whiteSpace=wrap;rounded=0;" vertex="1" parent="P-VTEG7PiZHD9YXEiT9n-1">
          <mxGeometry x="640" y="105" width="20" height="30" as="geometry" />
        </mxCell>
        <mxCell id="P-VTEG7PiZHD9YXEiT9n-13" value="" style="verticalLabelPosition=bottom;shadow=0;dashed=0;align=center;html=1;verticalAlign=top;shape=mxgraph.electrical.logic_gates.logic_gate;operation=or;strokeWidth=2;" vertex="1" parent="P-VTEG7PiZHD9YXEiT9n-1">
          <mxGeometry x="80" y="210" width="100" height="60" as="geometry" />
        </mxCell>
        <mxCell id="P-VTEG7PiZHD9YXEiT9n-14" value="&lt;font style=&quot;font-size: 24px;&quot;&gt;=&lt;/font&gt;" style="text;html=1;strokeColor=none;fillColor=none;align=center;verticalAlign=middle;whiteSpace=wrap;rounded=0;" vertex="1" parent="P-VTEG7PiZHD9YXEiT9n-1">
          <mxGeometry x="220" y="385" width="20" height="30" as="geometry" />
        </mxCell>
        <mxCell id="P-VTEG7PiZHD9YXEiT9n-16" value="&lt;font style=&quot;font-size: 24px;&quot;&gt;=&lt;/font&gt;" style="text;html=1;strokeColor=none;fillColor=none;align=center;verticalAlign=middle;whiteSpace=wrap;rounded=0;" vertex="1" parent="P-VTEG7PiZHD9YXEiT9n-1">
          <mxGeometry x="220" y="585" width="20" height="30" as="geometry" />
        </mxCell>
        <mxCell id="P-VTEG7PiZHD9YXEiT9n-17" value="" style="verticalLabelPosition=bottom;shadow=0;dashed=0;align=center;html=1;verticalAlign=top;shape=mxgraph.electrical.logic_gates.logic_gate;operation=xor;strokeWidth=2;" vertex="1" parent="P-VTEG7PiZHD9YXEiT9n-1">
          <mxGeometry x="80" y="770" width="100" height="60" as="geometry" />
        </mxCell>
        <mxCell id="P-VTEG7PiZHD9YXEiT9n-18" value="&lt;font style=&quot;font-size: 24px;&quot;&gt;=&lt;/font&gt;" style="text;html=1;strokeColor=none;fillColor=none;align=center;verticalAlign=middle;whiteSpace=wrap;rounded=0;" vertex="1" parent="P-VTEG7PiZHD9YXEiT9n-1">
          <mxGeometry x="220" y="785" width="20" height="30" as="geometry" />
        </mxCell>
        <mxCell id="P-VTEG7PiZHD9YXEiT9n-19" value="" style="verticalLabelPosition=bottom;shadow=0;dashed=0;align=center;html=1;verticalAlign=top;shape=mxgraph.electrical.logic_gates.logic_gate;operation=xor;negating=1;negSize=0.15;strokeWidth=2;" vertex="1" parent="P-VTEG7PiZHD9YXEiT9n-1">
          <mxGeometry x="80" y="970" width="100" height="60" as="geometry" />
        </mxCell>
        <mxCell id="P-VTEG7PiZHD9YXEiT9n-20" value="&lt;font style=&quot;font-size: 24px;&quot;&gt;=&lt;/font&gt;" style="text;html=1;strokeColor=none;fillColor=none;align=center;verticalAlign=middle;whiteSpace=wrap;rounded=0;" vertex="1" parent="P-VTEG7PiZHD9YXEiT9n-1">
          <mxGeometry x="220" y="985" width="20" height="30" as="geometry" />
        </mxCell>
        <mxCell id="QSdsYBB2l5cft3DP6q8e-1" value="" style="group" vertex="1" connectable="0" parent="P-VTEG7PiZHD9YXEiT9n-1">
          <mxGeometry x="280" y="90" width="120" height="60" as="geometry" />
        </mxCell>
        <mxCell id="P-VTEG7PiZHD9YXEiT9n-5" value="" style="endArrow=none;html=1;rounded=0;exitX=0;exitY=0.25;exitDx=0;exitDy=0;exitPerimeter=0;entryX=0;entryY=0.75;entryDx=0;entryDy=0;entryPerimeter=0;strokeWidth=2;" edge="1" parent="QSdsYBB2l5cft3DP6q8e-1">
          <mxGeometry width="50" height="50" relative="1" as="geometry">
            <mxPoint x="20" y="15" as="sourcePoint" />
            <mxPoint x="20" y="45" as="targetPoint" />
          </mxGeometry>
        </mxCell>
        <mxCell id="P-VTEG7PiZHD9YXEiT9n-6" value="" style="endArrow=oval;html=1;rounded=0;endFill=1;strokeWidth=2;" edge="1" parent="QSdsYBB2l5cft3DP6q8e-1">
          <mxGeometry width="50" height="50" relative="1" as="geometry">
            <mxPoint y="30" as="sourcePoint" />
            <mxPoint x="20" y="30" as="targetPoint" />
          </mxGeometry>
        </mxCell>
        <mxCell id="QSdsYBB2l5cft3DP6q8e-0" value="" style="verticalLabelPosition=bottom;shadow=0;dashed=0;align=center;html=1;verticalAlign=top;shape=mxgraph.electrical.logic_gates.logic_gate;operation=or;negating=1;negSize=0.15;strokeWidth=2;" vertex="1" parent="QSdsYBB2l5cft3DP6q8e-1">
          <mxGeometry x="20" width="100" height="60" as="geometry" />
        </mxCell>
        <mxCell id="QSdsYBB2l5cft3DP6q8e-2" value="" style="verticalLabelPosition=bottom;shadow=0;dashed=0;align=center;html=1;verticalAlign=top;shape=mxgraph.electrical.logic_gates.logic_gate;operation=or;negating=1;negSize=0.15;strokeWidth=2;" vertex="1" parent="P-VTEG7PiZHD9YXEiT9n-1">
          <mxGeometry x="500" y="90" width="100" height="60" as="geometry" />
        </mxCell>
        <mxCell id="QSdsYBB2l5cft3DP6q8e-3" value="" style="verticalLabelPosition=bottom;shadow=0;dashed=0;align=center;html=1;verticalAlign=top;shape=mxgraph.electrical.logic_gates.logic_gate;operation=or;negating=1;negSize=0.15;strokeWidth=2;" vertex="1" parent="P-VTEG7PiZHD9YXEiT9n-1">
          <mxGeometry x="700" y="90" width="100" height="60" as="geometry" />
        </mxCell>
        <mxCell id="QSdsYBB2l5cft3DP6q8e-9" value="" style="group" vertex="1" connectable="0" parent="P-VTEG7PiZHD9YXEiT9n-1">
          <mxGeometry x="280" y="210" width="210" height="60" as="geometry" />
        </mxCell>
        <mxCell id="QSdsYBB2l5cft3DP6q8e-4" value="" style="verticalLabelPosition=bottom;shadow=0;dashed=0;align=center;html=1;verticalAlign=top;shape=mxgraph.electrical.logic_gates.logic_gate;operation=or;negating=1;negSize=0.15;strokeWidth=2;" vertex="1" parent="QSdsYBB2l5cft3DP6q8e-9">
          <mxGeometry width="100" height="60" as="geometry" />
        </mxCell>
        <mxCell id="QSdsYBB2l5cft3DP6q8e-5" value="" style="group" vertex="1" connectable="0" parent="QSdsYBB2l5cft3DP6q8e-9">
          <mxGeometry x="90" width="120" height="60" as="geometry" />
        </mxCell>
        <mxCell id="QSdsYBB2l5cft3DP6q8e-6" value="" style="endArrow=none;html=1;rounded=0;exitX=0;exitY=0.25;exitDx=0;exitDy=0;exitPerimeter=0;entryX=0;entryY=0.75;entryDx=0;entryDy=0;entryPerimeter=0;strokeWidth=2;" edge="1" parent="QSdsYBB2l5cft3DP6q8e-5">
          <mxGeometry width="50" height="50" relative="1" as="geometry">
            <mxPoint x="20" y="15" as="sourcePoint" />
            <mxPoint x="20" y="45" as="targetPoint" />
          </mxGeometry>
        </mxCell>
        <mxCell id="QSdsYBB2l5cft3DP6q8e-7" value="" style="endArrow=oval;html=1;rounded=0;endFill=1;strokeWidth=2;" edge="1" parent="QSdsYBB2l5cft3DP6q8e-5">
          <mxGeometry width="50" height="50" relative="1" as="geometry">
            <mxPoint y="30" as="sourcePoint" />
            <mxPoint x="20" y="30" as="targetPoint" />
          </mxGeometry>
        </mxCell>
        <mxCell id="QSdsYBB2l5cft3DP6q8e-8" value="" style="verticalLabelPosition=bottom;shadow=0;dashed=0;align=center;html=1;verticalAlign=top;shape=mxgraph.electrical.logic_gates.logic_gate;operation=or;negating=1;negSize=0.15;strokeWidth=2;" vertex="1" parent="QSdsYBB2l5cft3DP6q8e-5">
          <mxGeometry x="20" width="100" height="60" as="geometry" />
        </mxCell>
        <mxCell id="QSdsYBB2l5cft3DP6q8e-19" value="" style="group" vertex="1" connectable="0" parent="P-VTEG7PiZHD9YXEiT9n-1">
          <mxGeometry x="280" y="330" width="220" height="140" as="geometry" />
        </mxCell>
        <mxCell id="QSdsYBB2l5cft3DP6q8e-10" value="" style="verticalLabelPosition=bottom;shadow=0;dashed=0;align=center;html=1;verticalAlign=top;shape=mxgraph.electrical.logic_gates.logic_gate;operation=or;negating=1;negSize=0.15;strokeWidth=2;" vertex="1" parent="QSdsYBB2l5cft3DP6q8e-19">
          <mxGeometry x="120" y="40" width="100" height="60" as="geometry" />
        </mxCell>
        <mxCell id="P-VTEG7PiZHD9YXEiT9n-77" value="" style="endArrow=none;html=1;rounded=0;strokeWidth=2;exitX=1;exitY=0.5;exitDx=0;exitDy=0;exitPerimeter=0;entryX=0;entryY=0.75;entryDx=0;entryDy=0;entryPerimeter=0;" edge="1" parent="QSdsYBB2l5cft3DP6q8e-19">
          <mxGeometry width="50" height="50" relative="1" as="geometry">
            <mxPoint x="120" y="110" as="sourcePoint" />
            <mxPoint x="120" y="85" as="targetPoint" />
          </mxGeometry>
        </mxCell>
        <mxCell id="P-VTEG7PiZHD9YXEiT9n-78" value="" style="endArrow=none;html=1;rounded=0;strokeWidth=2;exitX=0;exitY=0.25;exitDx=0;exitDy=0;exitPerimeter=0;entryX=1;entryY=0.5;entryDx=0;entryDy=0;entryPerimeter=0;" edge="1" parent="QSdsYBB2l5cft3DP6q8e-19">
          <mxGeometry width="50" height="50" relative="1" as="geometry">
            <mxPoint x="120" y="55" as="sourcePoint" />
            <mxPoint x="120" y="30" as="targetPoint" />
          </mxGeometry>
        </mxCell>
        <mxCell id="QSdsYBB2l5cft3DP6q8e-11" value="" style="group" vertex="1" connectable="0" parent="QSdsYBB2l5cft3DP6q8e-19">
          <mxGeometry width="120" height="60" as="geometry" />
        </mxCell>
        <mxCell id="QSdsYBB2l5cft3DP6q8e-12" value="" style="endArrow=none;html=1;rounded=0;exitX=0;exitY=0.25;exitDx=0;exitDy=0;exitPerimeter=0;entryX=0;entryY=0.75;entryDx=0;entryDy=0;entryPerimeter=0;strokeWidth=2;" edge="1" parent="QSdsYBB2l5cft3DP6q8e-11">
          <mxGeometry width="50" height="50" relative="1" as="geometry">
            <mxPoint x="20" y="15" as="sourcePoint" />
            <mxPoint x="20" y="45" as="targetPoint" />
          </mxGeometry>
        </mxCell>
        <mxCell id="QSdsYBB2l5cft3DP6q8e-13" value="" style="endArrow=oval;html=1;rounded=0;endFill=1;strokeWidth=2;" edge="1" parent="QSdsYBB2l5cft3DP6q8e-11">
          <mxGeometry width="50" height="50" relative="1" as="geometry">
            <mxPoint y="30" as="sourcePoint" />
            <mxPoint x="20" y="30" as="targetPoint" />
          </mxGeometry>
        </mxCell>
        <mxCell id="QSdsYBB2l5cft3DP6q8e-14" value="" style="verticalLabelPosition=bottom;shadow=0;dashed=0;align=center;html=1;verticalAlign=top;shape=mxgraph.electrical.logic_gates.logic_gate;operation=or;negating=1;negSize=0.15;strokeWidth=2;" vertex="1" parent="QSdsYBB2l5cft3DP6q8e-11">
          <mxGeometry x="20" width="100" height="60" as="geometry" />
        </mxCell>
        <mxCell id="QSdsYBB2l5cft3DP6q8e-15" value="" style="group" vertex="1" connectable="0" parent="QSdsYBB2l5cft3DP6q8e-19">
          <mxGeometry y="80" width="120" height="60" as="geometry" />
        </mxCell>
        <mxCell id="QSdsYBB2l5cft3DP6q8e-16" value="" style="endArrow=none;html=1;rounded=0;exitX=0;exitY=0.25;exitDx=0;exitDy=0;exitPerimeter=0;entryX=0;entryY=0.75;entryDx=0;entryDy=0;entryPerimeter=0;strokeWidth=2;" edge="1" parent="QSdsYBB2l5cft3DP6q8e-15">
          <mxGeometry width="50" height="50" relative="1" as="geometry">
            <mxPoint x="20" y="15" as="sourcePoint" />
            <mxPoint x="20" y="45" as="targetPoint" />
          </mxGeometry>
        </mxCell>
        <mxCell id="QSdsYBB2l5cft3DP6q8e-17" value="" style="endArrow=oval;html=1;rounded=0;endFill=1;strokeWidth=2;" edge="1" parent="QSdsYBB2l5cft3DP6q8e-15">
          <mxGeometry width="50" height="50" relative="1" as="geometry">
            <mxPoint y="30" as="sourcePoint" />
            <mxPoint x="20" y="30" as="targetPoint" />
          </mxGeometry>
        </mxCell>
        <mxCell id="QSdsYBB2l5cft3DP6q8e-18" value="" style="verticalLabelPosition=bottom;shadow=0;dashed=0;align=center;html=1;verticalAlign=top;shape=mxgraph.electrical.logic_gates.logic_gate;operation=or;negating=1;negSize=0.15;strokeWidth=2;" vertex="1" parent="QSdsYBB2l5cft3DP6q8e-15">
          <mxGeometry x="20" width="100" height="60" as="geometry" />
        </mxCell>
        <mxCell id="QSdsYBB2l5cft3DP6q8e-40" value="" style="group" vertex="1" connectable="0" parent="P-VTEG7PiZHD9YXEiT9n-1">
          <mxGeometry x="280" y="530" width="330" height="140" as="geometry" />
        </mxCell>
        <mxCell id="QSdsYBB2l5cft3DP6q8e-21" value="" style="verticalLabelPosition=bottom;shadow=0;dashed=0;align=center;html=1;verticalAlign=top;shape=mxgraph.electrical.logic_gates.logic_gate;operation=or;negating=1;negSize=0.15;strokeWidth=2;" vertex="1" parent="QSdsYBB2l5cft3DP6q8e-40">
          <mxGeometry x="120" y="40" width="100" height="60" as="geometry" />
        </mxCell>
        <mxCell id="QSdsYBB2l5cft3DP6q8e-22" value="" style="endArrow=none;html=1;rounded=0;strokeWidth=2;exitX=1;exitY=0.5;exitDx=0;exitDy=0;exitPerimeter=0;entryX=0;entryY=0.75;entryDx=0;entryDy=0;entryPerimeter=0;" edge="1" parent="QSdsYBB2l5cft3DP6q8e-40">
          <mxGeometry width="50" height="50" relative="1" as="geometry">
            <mxPoint x="120" y="110" as="sourcePoint" />
            <mxPoint x="120" y="85" as="targetPoint" />
          </mxGeometry>
        </mxCell>
        <mxCell id="QSdsYBB2l5cft3DP6q8e-23" value="" style="endArrow=none;html=1;rounded=0;strokeWidth=2;exitX=0;exitY=0.25;exitDx=0;exitDy=0;exitPerimeter=0;entryX=1;entryY=0.5;entryDx=0;entryDy=0;entryPerimeter=0;" edge="1" parent="QSdsYBB2l5cft3DP6q8e-40">
          <mxGeometry width="50" height="50" relative="1" as="geometry">
            <mxPoint x="120" y="55" as="sourcePoint" />
            <mxPoint x="120" y="30" as="targetPoint" />
          </mxGeometry>
        </mxCell>
        <mxCell id="QSdsYBB2l5cft3DP6q8e-24" value="" style="group" vertex="1" connectable="0" parent="QSdsYBB2l5cft3DP6q8e-40">
          <mxGeometry width="120" height="60" as="geometry" />
        </mxCell>
        <mxCell id="QSdsYBB2l5cft3DP6q8e-25" value="" style="endArrow=none;html=1;rounded=0;exitX=0;exitY=0.25;exitDx=0;exitDy=0;exitPerimeter=0;entryX=0;entryY=0.75;entryDx=0;entryDy=0;entryPerimeter=0;strokeWidth=2;" edge="1" parent="QSdsYBB2l5cft3DP6q8e-24">
          <mxGeometry width="50" height="50" relative="1" as="geometry">
            <mxPoint x="20" y="15" as="sourcePoint" />
            <mxPoint x="20" y="45" as="targetPoint" />
          </mxGeometry>
        </mxCell>
        <mxCell id="QSdsYBB2l5cft3DP6q8e-26" value="" style="endArrow=oval;html=1;rounded=0;endFill=1;strokeWidth=2;" edge="1" parent="QSdsYBB2l5cft3DP6q8e-24">
          <mxGeometry width="50" height="50" relative="1" as="geometry">
            <mxPoint y="30" as="sourcePoint" />
            <mxPoint x="20" y="30" as="targetPoint" />
          </mxGeometry>
        </mxCell>
        <mxCell id="QSdsYBB2l5cft3DP6q8e-27" value="" style="verticalLabelPosition=bottom;shadow=0;dashed=0;align=center;html=1;verticalAlign=top;shape=mxgraph.electrical.logic_gates.logic_gate;operation=or;negating=1;negSize=0.15;strokeWidth=2;" vertex="1" parent="QSdsYBB2l5cft3DP6q8e-24">
          <mxGeometry x="20" width="100" height="60" as="geometry" />
        </mxCell>
        <mxCell id="QSdsYBB2l5cft3DP6q8e-28" value="" style="group" vertex="1" connectable="0" parent="QSdsYBB2l5cft3DP6q8e-40">
          <mxGeometry y="80" width="120" height="60" as="geometry" />
        </mxCell>
        <mxCell id="QSdsYBB2l5cft3DP6q8e-29" value="" style="endArrow=none;html=1;rounded=0;exitX=0;exitY=0.25;exitDx=0;exitDy=0;exitPerimeter=0;entryX=0;entryY=0.75;entryDx=0;entryDy=0;entryPerimeter=0;strokeWidth=2;" edge="1" parent="QSdsYBB2l5cft3DP6q8e-28">
          <mxGeometry width="50" height="50" relative="1" as="geometry">
            <mxPoint x="20" y="15" as="sourcePoint" />
            <mxPoint x="20" y="45" as="targetPoint" />
          </mxGeometry>
        </mxCell>
        <mxCell id="QSdsYBB2l5cft3DP6q8e-30" value="" style="endArrow=oval;html=1;rounded=0;endFill=1;strokeWidth=2;" edge="1" parent="QSdsYBB2l5cft3DP6q8e-28">
          <mxGeometry width="50" height="50" relative="1" as="geometry">
            <mxPoint y="30" as="sourcePoint" />
            <mxPoint x="20" y="30" as="targetPoint" />
          </mxGeometry>
        </mxCell>
        <mxCell id="QSdsYBB2l5cft3DP6q8e-31" value="" style="verticalLabelPosition=bottom;shadow=0;dashed=0;align=center;html=1;verticalAlign=top;shape=mxgraph.electrical.logic_gates.logic_gate;operation=or;negating=1;negSize=0.15;strokeWidth=2;" vertex="1" parent="QSdsYBB2l5cft3DP6q8e-28">
          <mxGeometry x="20" width="100" height="60" as="geometry" />
        </mxCell>
        <mxCell id="QSdsYBB2l5cft3DP6q8e-32" value="" style="group" vertex="1" connectable="0" parent="QSdsYBB2l5cft3DP6q8e-40">
          <mxGeometry x="210" y="40" width="120" height="60" as="geometry" />
        </mxCell>
        <mxCell id="QSdsYBB2l5cft3DP6q8e-33" value="" style="endArrow=none;html=1;rounded=0;exitX=0;exitY=0.25;exitDx=0;exitDy=0;exitPerimeter=0;entryX=0;entryY=0.75;entryDx=0;entryDy=0;entryPerimeter=0;strokeWidth=2;" edge="1" parent="QSdsYBB2l5cft3DP6q8e-32">
          <mxGeometry width="50" height="50" relative="1" as="geometry">
            <mxPoint x="20" y="15" as="sourcePoint" />
            <mxPoint x="20" y="45" as="targetPoint" />
          </mxGeometry>
        </mxCell>
        <mxCell id="QSdsYBB2l5cft3DP6q8e-34" value="" style="endArrow=oval;html=1;rounded=0;endFill=1;strokeWidth=2;" edge="1" parent="QSdsYBB2l5cft3DP6q8e-32">
          <mxGeometry width="50" height="50" relative="1" as="geometry">
            <mxPoint y="30" as="sourcePoint" />
            <mxPoint x="20" y="30" as="targetPoint" />
          </mxGeometry>
        </mxCell>
        <mxCell id="QSdsYBB2l5cft3DP6q8e-35" value="" style="verticalLabelPosition=bottom;shadow=0;dashed=0;align=center;html=1;verticalAlign=top;shape=mxgraph.electrical.logic_gates.logic_gate;operation=or;negating=1;negSize=0.15;strokeWidth=2;" vertex="1" parent="QSdsYBB2l5cft3DP6q8e-32">
          <mxGeometry x="20" width="100" height="60" as="geometry" />
        </mxCell>
        <mxCell id="QSdsYBB2l5cft3DP6q8e-46" value="" style="group" vertex="1" connectable="0" parent="P-VTEG7PiZHD9YXEiT9n-1">
          <mxGeometry x="280" y="930" width="330" height="140" as="geometry" />
        </mxCell>
        <mxCell id="P-VTEG7PiZHD9YXEiT9n-40" value="" style="endArrow=none;html=1;rounded=0;strokeWidth=2;exitX=1;exitY=0.5;exitDx=0;exitDy=0;exitPerimeter=0;entryX=0;entryY=0.75;entryDx=0;entryDy=0;entryPerimeter=0;" edge="1" parent="QSdsYBB2l5cft3DP6q8e-46">
          <mxGeometry width="50" height="50" relative="1" as="geometry">
            <mxPoint x="230" y="110" as="sourcePoint" />
            <mxPoint x="230" y="85" as="targetPoint" />
          </mxGeometry>
        </mxCell>
        <mxCell id="P-VTEG7PiZHD9YXEiT9n-41" value="" style="endArrow=none;html=1;rounded=0;strokeWidth=2;exitX=0;exitY=0.25;exitDx=0;exitDy=0;exitPerimeter=0;entryX=1;entryY=0.5;entryDx=0;entryDy=0;entryPerimeter=0;" edge="1" parent="QSdsYBB2l5cft3DP6q8e-46">
          <mxGeometry width="50" height="50" relative="1" as="geometry">
            <mxPoint x="230" y="55" as="sourcePoint" />
            <mxPoint x="230" y="30" as="targetPoint" />
          </mxGeometry>
        </mxCell>
        <mxCell id="P-VTEG7PiZHD9YXEiT9n-43" value="" style="endArrow=none;html=1;rounded=0;exitX=0;exitY=0.75;exitDx=0;exitDy=0;exitPerimeter=0;entryX=0;entryY=0.25;entryDx=0;entryDy=0;entryPerimeter=0;strokeWidth=2;" edge="1" parent="QSdsYBB2l5cft3DP6q8e-46">
          <mxGeometry width="50" height="50" relative="1" as="geometry">
            <mxPoint x="130" y="45" as="sourcePoint" />
            <mxPoint x="130" y="95" as="targetPoint" />
          </mxGeometry>
        </mxCell>
        <mxCell id="P-VTEG7PiZHD9YXEiT9n-45" value="" style="endArrow=oval;html=1;rounded=0;endFill=1;strokeWidth=2;" edge="1" parent="QSdsYBB2l5cft3DP6q8e-46">
          <mxGeometry width="50" height="50" relative="1" as="geometry">
            <mxPoint x="110" y="70" as="sourcePoint" />
            <mxPoint x="130" y="70" as="targetPoint" />
          </mxGeometry>
        </mxCell>
        <mxCell id="P-VTEG7PiZHD9YXEiT9n-47" value="" style="endArrow=none;html=1;rounded=0;strokeWidth=2;entryX=0;entryY=0.25;entryDx=0;entryDy=0;entryPerimeter=0;startArrow=oval;startFill=1;" edge="1" parent="QSdsYBB2l5cft3DP6q8e-46">
          <mxGeometry width="50" height="50" relative="1" as="geometry">
            <mxPoint x="20" y="15" as="sourcePoint" />
            <mxPoint x="20" y="55" as="targetPoint" />
          </mxGeometry>
        </mxCell>
        <mxCell id="P-VTEG7PiZHD9YXEiT9n-48" value="" style="endArrow=none;html=1;rounded=0;strokeWidth=2;entryX=0;entryY=0.75;entryDx=0;entryDy=0;entryPerimeter=0;" edge="1" parent="QSdsYBB2l5cft3DP6q8e-46">
          <mxGeometry width="50" height="50" relative="1" as="geometry">
            <mxPoint y="125" as="sourcePoint" />
            <mxPoint x="130" y="125" as="targetPoint" />
          </mxGeometry>
        </mxCell>
        <mxCell id="P-VTEG7PiZHD9YXEiT9n-49" value="" style="endArrow=none;html=1;rounded=0;strokeWidth=2;entryX=0;entryY=0.25;entryDx=0;entryDy=0;entryPerimeter=0;" edge="1" parent="QSdsYBB2l5cft3DP6q8e-46">
          <mxGeometry width="50" height="50" relative="1" as="geometry">
            <mxPoint y="15" as="sourcePoint" />
            <mxPoint x="130" y="15" as="targetPoint" />
          </mxGeometry>
        </mxCell>
        <mxCell id="P-VTEG7PiZHD9YXEiT9n-50" value="" style="endArrow=none;html=1;rounded=0;strokeWidth=2;entryX=0;entryY=0.75;entryDx=0;entryDy=0;entryPerimeter=0;endFill=0;startArrow=oval;startFill=1;" edge="1" parent="QSdsYBB2l5cft3DP6q8e-46">
          <mxGeometry width="50" height="50" relative="1" as="geometry">
            <mxPoint x="20" y="125" as="sourcePoint" />
            <mxPoint x="20" y="85" as="targetPoint" />
          </mxGeometry>
        </mxCell>
        <mxCell id="QSdsYBB2l5cft3DP6q8e-42" value="" style="verticalLabelPosition=bottom;shadow=0;dashed=0;align=center;html=1;verticalAlign=top;shape=mxgraph.electrical.logic_gates.logic_gate;operation=or;negating=1;negSize=0.15;strokeWidth=2;" vertex="1" parent="QSdsYBB2l5cft3DP6q8e-46">
          <mxGeometry x="230" y="40" width="100" height="60" as="geometry" />
        </mxCell>
        <mxCell id="QSdsYBB2l5cft3DP6q8e-43" value="" style="verticalLabelPosition=bottom;shadow=0;dashed=0;align=center;html=1;verticalAlign=top;shape=mxgraph.electrical.logic_gates.logic_gate;operation=or;negating=1;negSize=0.15;strokeWidth=2;" vertex="1" parent="QSdsYBB2l5cft3DP6q8e-46">
          <mxGeometry x="130" width="100" height="60" as="geometry" />
        </mxCell>
        <mxCell id="QSdsYBB2l5cft3DP6q8e-44" value="" style="verticalLabelPosition=bottom;shadow=0;dashed=0;align=center;html=1;verticalAlign=top;shape=mxgraph.electrical.logic_gates.logic_gate;operation=or;negating=1;negSize=0.15;strokeWidth=2;" vertex="1" parent="QSdsYBB2l5cft3DP6q8e-46">
          <mxGeometry x="130" y="80" width="100" height="60" as="geometry" />
        </mxCell>
        <mxCell id="QSdsYBB2l5cft3DP6q8e-45" value="" style="verticalLabelPosition=bottom;shadow=0;dashed=0;align=center;html=1;verticalAlign=top;shape=mxgraph.electrical.logic_gates.logic_gate;operation=or;negating=1;negSize=0.15;strokeWidth=2;" vertex="1" parent="QSdsYBB2l5cft3DP6q8e-46">
          <mxGeometry x="20" y="40" width="100" height="60" as="geometry" />
        </mxCell>
        <mxCell id="QSdsYBB2l5cft3DP6q8e-60" value="" style="group" vertex="1" connectable="0" parent="P-VTEG7PiZHD9YXEiT9n-1">
          <mxGeometry x="280" y="730" width="440" height="140" as="geometry" />
        </mxCell>
        <mxCell id="QSdsYBB2l5cft3DP6q8e-36" value="" style="group" vertex="1" connectable="0" parent="QSdsYBB2l5cft3DP6q8e-60">
          <mxGeometry x="320" y="40" width="120" height="60" as="geometry" />
        </mxCell>
        <mxCell id="QSdsYBB2l5cft3DP6q8e-37" value="" style="endArrow=none;html=1;rounded=0;exitX=0;exitY=0.25;exitDx=0;exitDy=0;exitPerimeter=0;entryX=0;entryY=0.75;entryDx=0;entryDy=0;entryPerimeter=0;strokeWidth=2;" edge="1" parent="QSdsYBB2l5cft3DP6q8e-36">
          <mxGeometry width="50" height="50" relative="1" as="geometry">
            <mxPoint x="20" y="15" as="sourcePoint" />
            <mxPoint x="20" y="45" as="targetPoint" />
          </mxGeometry>
        </mxCell>
        <mxCell id="QSdsYBB2l5cft3DP6q8e-38" value="" style="endArrow=oval;html=1;rounded=0;endFill=1;strokeWidth=2;" edge="1" parent="QSdsYBB2l5cft3DP6q8e-36">
          <mxGeometry width="50" height="50" relative="1" as="geometry">
            <mxPoint y="30" as="sourcePoint" />
            <mxPoint x="20" y="30" as="targetPoint" />
          </mxGeometry>
        </mxCell>
        <mxCell id="QSdsYBB2l5cft3DP6q8e-39" value="" style="verticalLabelPosition=bottom;shadow=0;dashed=0;align=center;html=1;verticalAlign=top;shape=mxgraph.electrical.logic_gates.logic_gate;operation=or;negating=1;negSize=0.15;strokeWidth=2;" vertex="1" parent="QSdsYBB2l5cft3DP6q8e-36">
          <mxGeometry x="20" width="100" height="60" as="geometry" />
        </mxCell>
        <mxCell id="QSdsYBB2l5cft3DP6q8e-48" value="" style="endArrow=none;html=1;rounded=0;strokeWidth=2;exitX=1;exitY=0.5;exitDx=0;exitDy=0;exitPerimeter=0;entryX=0;entryY=0.75;entryDx=0;entryDy=0;entryPerimeter=0;" edge="1" parent="QSdsYBB2l5cft3DP6q8e-60">
          <mxGeometry width="50" height="50" relative="1" as="geometry">
            <mxPoint x="230" y="110" as="sourcePoint" />
            <mxPoint x="230" y="85" as="targetPoint" />
          </mxGeometry>
        </mxCell>
        <mxCell id="QSdsYBB2l5cft3DP6q8e-49" value="" style="endArrow=none;html=1;rounded=0;strokeWidth=2;exitX=0;exitY=0.25;exitDx=0;exitDy=0;exitPerimeter=0;entryX=1;entryY=0.5;entryDx=0;entryDy=0;entryPerimeter=0;" edge="1" parent="QSdsYBB2l5cft3DP6q8e-60">
          <mxGeometry width="50" height="50" relative="1" as="geometry">
            <mxPoint x="230" y="55" as="sourcePoint" />
            <mxPoint x="230" y="30" as="targetPoint" />
          </mxGeometry>
        </mxCell>
        <mxCell id="QSdsYBB2l5cft3DP6q8e-50" value="" style="endArrow=none;html=1;rounded=0;exitX=0;exitY=0.75;exitDx=0;exitDy=0;exitPerimeter=0;entryX=0;entryY=0.25;entryDx=0;entryDy=0;entryPerimeter=0;strokeWidth=2;" edge="1" parent="QSdsYBB2l5cft3DP6q8e-60">
          <mxGeometry width="50" height="50" relative="1" as="geometry">
            <mxPoint x="130" y="45" as="sourcePoint" />
            <mxPoint x="130" y="95" as="targetPoint" />
          </mxGeometry>
        </mxCell>
        <mxCell id="QSdsYBB2l5cft3DP6q8e-51" value="" style="endArrow=oval;html=1;rounded=0;endFill=1;strokeWidth=2;" edge="1" parent="QSdsYBB2l5cft3DP6q8e-60">
          <mxGeometry width="50" height="50" relative="1" as="geometry">
            <mxPoint x="110" y="70" as="sourcePoint" />
            <mxPoint x="130" y="70" as="targetPoint" />
          </mxGeometry>
        </mxCell>
        <mxCell id="QSdsYBB2l5cft3DP6q8e-52" value="" style="endArrow=none;html=1;rounded=0;strokeWidth=2;entryX=0;entryY=0.25;entryDx=0;entryDy=0;entryPerimeter=0;startArrow=oval;startFill=1;" edge="1" parent="QSdsYBB2l5cft3DP6q8e-60">
          <mxGeometry width="50" height="50" relative="1" as="geometry">
            <mxPoint x="20" y="15" as="sourcePoint" />
            <mxPoint x="20" y="55" as="targetPoint" />
          </mxGeometry>
        </mxCell>
        <mxCell id="QSdsYBB2l5cft3DP6q8e-53" value="" style="endArrow=none;html=1;rounded=0;strokeWidth=2;entryX=0;entryY=0.75;entryDx=0;entryDy=0;entryPerimeter=0;" edge="1" parent="QSdsYBB2l5cft3DP6q8e-60">
          <mxGeometry width="50" height="50" relative="1" as="geometry">
            <mxPoint y="125" as="sourcePoint" />
            <mxPoint x="130" y="125" as="targetPoint" />
          </mxGeometry>
        </mxCell>
        <mxCell id="QSdsYBB2l5cft3DP6q8e-54" value="" style="endArrow=none;html=1;rounded=0;strokeWidth=2;entryX=0;entryY=0.25;entryDx=0;entryDy=0;entryPerimeter=0;" edge="1" parent="QSdsYBB2l5cft3DP6q8e-60">
          <mxGeometry width="50" height="50" relative="1" as="geometry">
            <mxPoint y="15" as="sourcePoint" />
            <mxPoint x="130" y="15" as="targetPoint" />
          </mxGeometry>
        </mxCell>
        <mxCell id="QSdsYBB2l5cft3DP6q8e-55" value="" style="endArrow=none;html=1;rounded=0;strokeWidth=2;entryX=0;entryY=0.75;entryDx=0;entryDy=0;entryPerimeter=0;endFill=0;startArrow=oval;startFill=1;" edge="1" parent="QSdsYBB2l5cft3DP6q8e-60">
          <mxGeometry width="50" height="50" relative="1" as="geometry">
            <mxPoint x="20" y="125" as="sourcePoint" />
            <mxPoint x="20" y="85" as="targetPoint" />
          </mxGeometry>
        </mxCell>
        <mxCell id="QSdsYBB2l5cft3DP6q8e-56" value="" style="verticalLabelPosition=bottom;shadow=0;dashed=0;align=center;html=1;verticalAlign=top;shape=mxgraph.electrical.logic_gates.logic_gate;operation=or;negating=1;negSize=0.15;strokeWidth=2;" vertex="1" parent="QSdsYBB2l5cft3DP6q8e-60">
          <mxGeometry x="230" y="40" width="100" height="60" as="geometry" />
        </mxCell>
        <mxCell id="QSdsYBB2l5cft3DP6q8e-57" value="" style="verticalLabelPosition=bottom;shadow=0;dashed=0;align=center;html=1;verticalAlign=top;shape=mxgraph.electrical.logic_gates.logic_gate;operation=or;negating=1;negSize=0.15;strokeWidth=2;" vertex="1" parent="QSdsYBB2l5cft3DP6q8e-60">
          <mxGeometry x="130" width="100" height="60" as="geometry" />
        </mxCell>
        <mxCell id="QSdsYBB2l5cft3DP6q8e-58" value="" style="verticalLabelPosition=bottom;shadow=0;dashed=0;align=center;html=1;verticalAlign=top;shape=mxgraph.electrical.logic_gates.logic_gate;operation=or;negating=1;negSize=0.15;strokeWidth=2;" vertex="1" parent="QSdsYBB2l5cft3DP6q8e-60">
          <mxGeometry x="130" y="80" width="100" height="60" as="geometry" />
        </mxCell>
        <mxCell id="QSdsYBB2l5cft3DP6q8e-59" value="" style="verticalLabelPosition=bottom;shadow=0;dashed=0;align=center;html=1;verticalAlign=top;shape=mxgraph.electrical.logic_gates.logic_gate;operation=or;negating=1;negSize=0.15;strokeWidth=2;" vertex="1" parent="QSdsYBB2l5cft3DP6q8e-60">
          <mxGeometry x="20" y="40" width="100" height="60" as="geometry" />
        </mxCell>
      </root>
    </mxGraphModel>
  </diagram>
</mxfile>
